<mxfile host="app.diagrams.net" modified="2023-11-22T03:12:22.220Z" agent="Mozilla/5.0 (Macintosh; Intel Mac OS X 10_15_7) AppleWebKit/537.36 (KHTML, like Gecko) Chrome/119.0.0.0 Safari/537.36" version="22.1.3" etag="TekGoWt50BixuxZIKSlj" type="github">
  <diagram name="第 1 页" id="69OguYGHD_rrpE_SdktG">
    <mxGraphModel>
      <root>
        <mxCell id="0" />
        <mxCell id="1" parent="0" />
      </root>
    </mxGraphModel>
  </diagram>
</mxfile>
